<svg id="e60fbb16-6834-4894-8cc0-950b7ff7c744" data-name="Layer 1" xmlns="http://www.w3.org/2000/svg" viewBox="0 0 1366 768"><defs><style>*{fill:currentColor;stroke:currentColor;}.adf6bd01-7094-435c-9ad8-2f6bc00c30fb,.b0f51515-9555-474d-a717-bf847069fe96,.fcde0048-877b-462a-b2ab-33a1ebcd26cf{stroke-miterlimit:10;}.adf6bd01-7094-435c-9ad8-2f6bc00c30fb{stroke-width:8px;}.fcde0048-877b-462a-b2ab-33a1ebcd26cf{stroke-width:4px;}.b0f51515-9555-474d-a717-bf847069fe96{stroke-width:6px;}</style></defs><path class="bfb6f142-f32f-496c-9ffc-7f80284ee36c" d="M323.06,209.5q21.62,0,38.2,1.21t27.39,5.52q10.82,4.34,16.34,12t5.53,20.66q0,6.74-3.36,15.86a56.92,56.92,0,0,1-11.3,18A91.74,91.74,0,0,1,375,299.61q-13,7.93-31.72,12.26c-.65,0-1,.48-1,1.44a.84.84,0,0,0,1,1q6.72,1.44,14.9,3.12a52.92,52.92,0,0,1,15.38,5.77,41.09,41.09,0,0,1,12.25,10.57q5,6.5,5.05,17.54,0,13.47-7.21,27.15a82.13,82.13,0,0,1-20.43,24.75Q350,414.24,331,421.2t-43,7a181.85,181.85,0,0,1-29.79-2.64,102.84,102.84,0,0,1-29.32-9.37,56.57,56.57,0,0,0-6.24-3.12,13.15,13.15,0,0,0-4.81-1.2q-3.85,0-12,3.84a77.23,77.23,0,0,0-14.9,9.13L188,422.4a105,105,0,0,0,8.41-9.85q2.18-3.12,3.61-5.53,7.68-13,15.86-27.15T231.51,352q7.44-13.69,14.41-26.43t12.74-22.82Q263,294.09,269,283.27t12-22.34q6-11.53,11.53-22.83t9.85-20.43a5.31,5.31,0,0,0,.48-2.4q0-1.44-2.88-1.44a128.45,128.45,0,0,0-14.9,1q-8.18,1-15.86,2.16t-14.42,2.17a79.63,79.63,0,0,1-10.57,1q-7.69,0-7.69-4.81c0-3.52,1-6.25,2.89-8.17q.94,0,1.44,1.44c.64,1,2,1.61,4.08,1.93s7.13.48,15.14.48q15.38,0,29.08-.72T323.06,209.5Zm64.39,35.09q0-9.14-3.84-15.14a27.09,27.09,0,0,0-10.09-9.37,43.64,43.64,0,0,0-13.94-4.57,101,101,0,0,0-15.38-1.2,39,39,0,0,0-9.85,1.2,14.75,14.75,0,0,0-7.93,5.53,146,146,0,0,0-10.81,16.1q-5.53,9.36-10.34,17.54Q289.41,283,271.15,318.11t-36.52,71.13a26.87,26.87,0,0,0-2.88,8.65c0,1.92.79,4.32,2.4,7.21a27.43,27.43,0,0,0,7.93,8.41,51.07,51.07,0,0,0,14.18,7q8.64,2.88,21.62,2.88a100.68,100.68,0,0,0,32.44-6.49,105.41,105.41,0,0,0,29.07-16.34A82.57,82.57,0,0,0,360.3,376a61.42,61.42,0,0,0,7.93-30.51q0-13.93-10.57-21.39t-29.8-8.41a74.51,74.51,0,0,0-14.9,1.68,71.9,71.9,0,0,1-14.41,1.68,5.4,5.4,0,0,1-2.17-1.2q-.72-.72-.72-3.6a6.1,6.1,0,0,1,1.44-4.09A4.86,4.86,0,0,1,301,308.5,35,35,0,0,1,311,309.94a34.92,34.92,0,0,0,10.09,1.45,75.36,75.36,0,0,0,9.85-.73,43,43,0,0,0,9.38-2.16,97.41,97.41,0,0,0,17.06-9.85,79.22,79.22,0,0,0,15.13-14.18,69.55,69.55,0,0,0,10.82-18.26A57.12,57.12,0,0,0,387.45,244.59Z"/><path class="bfb6f142-f32f-496c-9ffc-7f80284ee36c" d="M525.38,360.4a218.27,218.27,0,0,1-26.44,28.36,227.18,227.18,0,0,1-27.39,21.62,85.78,85.78,0,0,1-19.7,9.62,58.45,58.45,0,0,1-18.26,3.36,55.07,55.07,0,0,1-6.73-.48,17.17,17.17,0,0,1-7-2.4,17.54,17.54,0,0,1-5.29-5.05,14.53,14.53,0,0,1-2.16-8.41q0-6.24,4.81-17.06t11.29-22.35q6.49-11.53,13-22.1t10.33-15.86q2.4-3.84,8.41-6.49t7.93-2.64q2.4,0,2.4,1.44a9.13,9.13,0,0,1-.72,2.88,7.87,7.87,0,0,1-1.68,2.88q-6.26,9.63-12.74,21.15t-11.77,22.35a173,173,0,0,0-8.41,19.94q-3.13,9.13-3.13,14.42c0,3.84,1,6.65,3.13,8.41a12.59,12.59,0,0,0,8.41,2.64q9.6,0,21.14-6.49a164.64,164.64,0,0,0,22.83-15.62,218.73,218.73,0,0,0,20.9-19.22,184.94,184.94,0,0,0,14.9-17.3q2.4-2.4,2.65-1.2A7.24,7.24,0,0,1,525.38,360.4ZM503.75,253.24q0,5.76-5.05,11.53t-11.29,5.77c-3.84,0-5.77-1.93-5.77-5.77a19.09,19.09,0,0,1,4.57-12Q490.77,247,497.5,247,503.74,247,503.75,253.24Z"/><path class="bfb6f142-f32f-496c-9ffc-7f80284ee36c" d="M760.86,114.35a60,60,0,0,1-.49,9.61c-.32,1.61-1,1.92-1.92,1A68,68,0,0,0,752,119.4q-4.08-3.12-14.17-3.13a120.47,120.47,0,0,0-15.86,1,64.11,64.11,0,0,0-14.66,3.84A95.09,95.09,0,0,0,691.65,129a149,149,0,0,0-18.26,13.7Q659,154.73,642.15,178T608.27,229q-17.06,27.63-32.43,56.22t-26.92,51.19q-3.84,7.68-8.41,18t-8.17,20.66q-3.6,10.33-6,19.22t-2.41,13.22q0,13,8.65,13,5.29,0,12-5.05a57.85,57.85,0,0,0,13-14.42,91.11,91.11,0,0,0,10.58-23.07,102.87,102.87,0,0,0,4.32-31,49.4,49.4,0,0,0-.72-9.37,34.94,34.94,0,0,0-1.68-6c0-1.92,1-3.85,2.88-5.77,1.28-1.27,2.89-2.8,4.81-4.56a33.91,33.91,0,0,1,5.28-4.09,2,2,0,0,1,1.93,1q0,9.63,3.6,16.1a32.46,32.46,0,0,0,9.13,10.58,38.19,38.19,0,0,0,12,6A42.86,42.86,0,0,0,622,352.71a67.09,67.09,0,0,0,17.78-2.64,75.49,75.49,0,0,0,19.7-8.89c1.6-1,2.65-.88,3.13.24s-.09,2-1.68,2.64a157.82,157.82,0,0,1-28.12,12A82.33,82.33,0,0,1,609,359.92a34,34,0,0,1-16.58-4.08,33.44,33.44,0,0,1-11.29-9.37,87.81,87.81,0,0,1-6,33.16,93.72,93.72,0,0,1-14.65,25.23A69.89,69.89,0,0,1,541.71,421q-10.08,5.76-18.26,5.76a17.71,17.71,0,0,1-12.73-4.8q-5.06-4.8-5.05-14.9,0-7.68,3.37-18.74a188.22,188.22,0,0,1,8.41-22.35q5-11.28,10.33-21.63t8.65-16.58q13-24,27.87-49t31.48-49.5q16.58-24.51,35.08-47.34A409.69,409.69,0,0,1,670,139.82q5.76-5.28,14.65-12.49a213.32,213.32,0,0,1,19-13.7,132.27,132.27,0,0,1,20.42-10.81q10.33-4.33,19-4.33t13.22,4.57A15.37,15.37,0,0,1,760.86,114.35Z"/><path class="bfb6f142-f32f-496c-9ffc-7f80284ee36c" d="M697.42,335.41c-1,1.61-1.77,1.77-2.4.48q-2.89-6.24-12-6.24a27,27,0,0,0-13.46,3.84A12.47,12.47,0,0,0,662.82,345a14.3,14.3,0,0,0,2.4,7.68q2.4,3.85,6.73,10.1,3.84,5.76,7.21,11.53a23.62,23.62,0,0,1,3.36,12q0,12.51-5.77,20.43a46.72,46.72,0,0,1-13.69,12.73A50.7,50.7,0,0,1,647,426a68.35,68.35,0,0,1-13,1.68q-29.31,0-32.2-19.7c1.61-1,3.44-2.16,5.53-3.6a19.83,19.83,0,0,0,4.57-4.09c.63,0,1.11.65,1.44,1.92a31.41,31.41,0,0,0,9.13,14.9,22.51,22.51,0,0,0,15.86,6.25,69.11,69.11,0,0,0,9.13-.72,26.58,26.58,0,0,0,9.85-3.37,24.94,24.94,0,0,0,7.93-7.44q3.36-4.8,3.36-13a27.56,27.56,0,0,0-2.4-11.53,68.29,68.29,0,0,0-5.29-9.62q-2.88-4.79-5.76-9.61a20.18,20.18,0,0,1-2.89-10.57q0-5.76,4.09-12.49a53,53,0,0,1,10.33-12.26,67.12,67.12,0,0,1,13.7-9.37A31.8,31.8,0,0,1,695,319.56q7.68,0,7.68,4.8a59.58,59.58,0,0,0-2.88,5.53Q698.38,333,697.42,335.41Z"/><path class="bfb6f142-f32f-496c-9ffc-7f80284ee36c" d="M834.86,359a236.08,236.08,0,0,1-16.34,18.5q-9.13,9.38-18.74,17.79a191.12,191.12,0,0,1-19.7,15.13A116.11,116.11,0,0,1,760.85,421,76.28,76.28,0,0,1,747.64,425a57.85,57.85,0,0,1-11.3,1.2q-26.43,0-26.43-22.1a49.15,49.15,0,0,1,3.85-18.27,127.26,127.26,0,0,1,25.71-40.12Q756,328.2,775.27,320a26.17,26.17,0,0,1,9.61-2.41q17.77,0,17.78,13.94,0,7.21-3.36,11.05a115.07,115.07,0,0,1-9.61,8.17l-1.44-.48a23.06,23.06,0,0,0,1.44-8.17,14,14,0,0,0-3.61-9.13q-3.6-4.32-11.29-4.32a29.76,29.76,0,0,0-17.54,6,59.36,59.36,0,0,0-14.9,15.86A86.1,86.1,0,0,0,732,373.14a89.9,89.9,0,0,0-3.85,26.19q0,10.1,5.53,15.14a19.56,19.56,0,0,0,13.7,5q13.44,0,36.28-15.61t48.78-47.34q2.4-2.4,3.6-1.2T834.86,359Z"/><path class="bfb6f142-f32f-496c-9ffc-7f80284ee36c" d="M919,325.32a78.76,78.76,0,0,0-6,8.17,47.08,47.08,0,0,0-4.08,7.21,1.89,1.89,0,0,1-1.92,1.44c-.33,0-.81-.48-1.45-1.44a21.08,21.08,0,0,0-2.64-3.12,17.52,17.52,0,0,0-4.57-3.13,18.66,18.66,0,0,0-8.17-1.44q-6.24,0-13.93,4.33A72.27,72.27,0,0,0,862.73,347a106.33,106.33,0,0,0-16.1,16.82q-7,9.14-13.21,19t-12,20.18q-5.76,10.35-12.49,20.91c-.32,1-1.29,1.44-2.88,1.44q-1,0-4.09-2.88c-2.09-1.92-3.12-3.37-3.12-4.33q0-2.88,3.36-8.65,7.68-13.44,15.62-27.15t14.9-25.71q7-12,12.25-20.91a143,143,0,0,0,7.21-13.21c1.6-2.88,2.72-4.33,3.36-4.33s2.24.81,4.81,2.41a7.52,7.52,0,0,1,3.84,6.72,13,13,0,0,1-1.68,4.81q-1.68,3.38-3.84,7c-1.44,2.4-2.81,4.73-4.09,7s-2.24,3.84-2.88,4.8c-1,1.61-1.13,2.41-.48,2.41a4,4,0,0,0,2.4-1.45q4.8-4.8,11.78-10.57A163.29,163.29,0,0,1,880,330.37,109.35,109.35,0,0,1,895.17,322q7.44-3.36,13.22-3.37a12.8,12.8,0,0,1,7.45,2.17Q919,322.92,919,325.32Z"/><path class="bfb6f142-f32f-496c-9ffc-7f80284ee36c" d="M1066.49,357.52q-11.06,13.46-24.27,27.15a313.91,313.91,0,0,1-26.67,24.75,147.54,147.54,0,0,1-26.67,17.78q-13.21,6.74-24.27,6.73-9.61,0-13.45-4.8a18.61,18.61,0,0,1-3.85-12q0-6.72,4.09-18a127.07,127.07,0,0,1,12.25-24.27q-6.25,8.18-14.42,17.3a180.76,180.76,0,0,1-16.82,16.58,116.68,116.68,0,0,1-17.3,12.5q-8.64,5-15.37,5-10.1,0-10.1-10.09,0-11.06,8.65-27.87a143.41,143.41,0,0,1,23.31-32.44A156,156,0,0,1,955,328.93q18.75-11.3,38.93-11.3a27.33,27.33,0,0,1,4.32-6.73,15.38,15.38,0,0,1,3.85-2.88l13.45-3.84,1,.48a31,31,0,0,0-4.56,6q-2.16,3.61-4.57,7.45c1.6,0,4,.17,7.21.48s5.6.65,7.21,1q2.4,1,2.4,2.4a1.27,1.27,0,0,1-1.44,1.44,39.63,39.63,0,0,0-8.65-1.44c-3.84-.32-6.73-.48-8.65-.48Q983.35,360.41,973,383.23t-10.33,33.88a11.67,11.67,0,0,0,2.16,7.21q2.16,2.88,8.89,2.88,7.68,0,18.26-5.52a134.42,134.42,0,0,0,22.59-15.38,311.87,311.87,0,0,0,24.75-22.83,361.57,361.57,0,0,0,24.27-27.39q1-1.44,1.92-.72A2.53,2.53,0,0,1,1066.49,357.52Zm-75-36.52q-16.34,0-31.23,11.53a137,137,0,0,0-26.43,27.15,171.91,171.91,0,0,0-18.51,31q-7,15.39-7,22.59c0,2.57,1,3.84,2.88,3.84s4.88-1.27,8.89-3.84a133.3,133.3,0,0,0,13.7-10.34,170.66,170.66,0,0,0,15.61-15.13,154.8,154.8,0,0,0,14.66-18.75q7.68-11.54,14.9-24.5t13-23.07Z"/><path class="bfb6f142-f32f-496c-9ffc-7f80284ee36c" d="M1178,347.91q-25.48,32.2-54.55,47.82a240.63,240.63,0,0,1-60.79,22.82q-11.07,2.42-19.23,3.85l-16.33,2.88q-13.95,23.54-26.44,46.86t-25,46.37q-18.25,34.13-33.16,64.4T910.31,643a23.28,23.28,0,0,1-9.13,8.89,76.59,76.59,0,0,1-13.46,5.53q-7.68,2.4-17.78,4.8a208.63,208.63,0,0,0-22.11,6.73q-2.88,1.44-3.36-.72c-.32-1.44.48-2.49,2.4-3.12A200.35,200.35,0,0,0,868,655.72a78.2,78.2,0,0,0,15.62-10.82A93.2,93.2,0,0,0,896.85,630q6.25-8.64,14.42-21.62,8.18-13.46,19.94-33.4t26.19-44q14.42-24,30.28-51.18t32.2-54.55c-1.93-.65-2.89-2.4-2.89-5.28q0-2.89,3.13-3.37c2.08-.31,3.76-.64,5-1l22.11-36q15.38-25,30.76-51.91a417.81,417.81,0,0,1,31.71-48.05,12,12,0,0,1,5.29-2.89,17,17,0,0,1,3.84-1q2.89-.46,5.77-1t5.29-.72q2.4-.24,2.88-.24,1.44,0,1.44,1c0,1-.64,2.09-1.92,3.37q-10.1,9.13-17.78,17.54t-14.42,16.34q-6.74,7.92-12.73,16.1T1075.14,346q4.8-5.28,10.57-11.06t11.54-10.57a71.46,71.46,0,0,1,11.53-7.93,22.55,22.55,0,0,1,10.58-3.12,11.24,11.24,0,0,1,7.92,2.88q3.12,2.88,3.13,9.61,0,4.81-4.09,14.9t-13.93,22.59q-9.86,12.49-26.19,25.95t-40.85,25q13-1.44,29.07-4.57a163,163,0,0,0,33.4-10.57,175.48,175.48,0,0,0,34.6-20.18q17.31-12.74,32.68-32.92a1.38,1.38,0,0,1,1.68-.72C1177.58,345.43,1178,346.31,1178,347.91Zm-67.29-12.5a20.58,20.58,0,0,0-.72-4.8c-.48-1.92-2.16-2.89-5-2.89-1.61,0-3.93.89-7,2.65a88.05,88.05,0,0,0-10.33,7.21,109,109,0,0,0-12,11.29,143.45,143.45,0,0,0-12,14.9q-8.17,11.53-15.86,24.75t-15.38,27.15a94.39,94.39,0,0,0,30-14.42,152.68,152.68,0,0,0,25-22.1,117,117,0,0,0,17.06-24Q1110.7,343.11,1110.7,335.41Z"/><line class="adf6bd01-7094-435c-9ad8-2f6bc00c30fb" x1="60" y1="507" x2="919" y2="507"/><line class="adf6bd01-7094-435c-9ad8-2f6bc00c30fb" x1="1032" y1="506.79" x2="1305" y2="506.79"/><line class="fcde0048-877b-462a-b2ab-33a1ebcd26cf" x1="188" y1="587" x2="879" y2="587"/><line class="fcde0048-877b-462a-b2ab-33a1ebcd26cf" x1="978" y1="587" x2="1178" y2="587"/><line class="fcde0048-877b-462a-b2ab-33a1ebcd26cf" x1="434" y1="666.99" x2="496" y2="666.99"/><circle class="bfb6f142-f32f-496c-9ffc-7f80284ee36c" cx="434.3" cy="666" r="3"/><path class="b0f51515-9555-474d-a717-bf847069fe96" d="M341,507.14,434.31,666Z"/></svg>
